<svg xmlns="http://www.w3.org/2000/svg" xmlns:xlink="http://www.w3.org/1999/xlink" viewBox="0 0 66.88 75.72"><defs><style>.cls-1{fill:none;}.cls-2{clip-path:url(#clip-path);}.cls-3{clip-path:url(#clip-path-2);}.cls-4{fill:#0a2ff1;}</style><clipPath id="clip-path" transform="translate(-26.45 -12.11)"><rect class="cls-1" width="117" height="100"/></clipPath><clipPath id="clip-path-2" transform="translate(-26.45 -12.11)"><rect class="cls-1" x="9.86" y="53.07" width="94.11" height="46.42"/></clipPath></defs><title>Asset 5</title><g id="Layer_2" data-name="Layer 2"><g id="Layer_1-2" data-name="Layer 1"><g class="cls-2"><g class="cls-3"><path class="cls-4" d="M65.5,23.65l1,.2-.06.09a1.77,1.77,0,0,0-.15.31c-.18-.15-.37-.29-.57-.43l-.16-.12-.07-.05m-11.09,0-.07.05-.15.11-.57.43a1.11,1.11,0,0,0-.14-.29l-.06-.11,1-.19m-.84,61,.61.47.16.11,0,0H54.3l-.23,0-.19,0-.13,0h-.08l-.32-.07a1,1,0,0,0,.08-.14,1.47,1.47,0,0,0,.14-.28m12.76,0a1.83,1.83,0,0,0,.14.28l.08.13-.35.08-.66.11,0,0,.14-.11.61-.46M60,21.09A33.36,33.36,0,0,0,36.62,78.3a33.87,33.87,0,0,0,7.62,5.6h0l0,0,1,.52c.59.29,1.19.56,1.78.81h0l.27.1.07,0h0l1.14.44.11,0q.74.27,1.41.48l.53.14.28.07h0c.75.21,1.51.42,2.29.58h0l.44.07c.22,0,.43.08.64.1l.07,0,.87.13c.42.07.83.14,1.25.18,1.13.11,2.27.17,3.38.17s2.26-.06,3.38-.17h0c.41,0,.81-.11,1.22-.18l1-.15c.36,0,.72-.1,1.07-.17.8-.16,1.57-.37,2.35-.59l.28-.07.52-.14c.39-.12.79-.25,1.21-.41l.07,0c.45-.16.94-.35,1.49-.57l.25-.09h0c.55-.24,1.11-.5,1.67-.77l.14-.06c.25-.12.49-.25.73-.38l.33-.16c.31-.17.6-.35.91-.53a34,34,0,0,0,5-3.47c.6-.51,1.19-1.05,1.76-1.6A33.38,33.38,0,0,0,60,21.09Zm1.39,18.24V24l.25.05.32.09q.27.08.54.18l.3.12c.2.09.39.18.59.29s.16.07.24.12a9,9,0,0,1,.81.51l.13.09c.22.16.44.33.66.52l.28.24c.17.15.34.3.5.46l.31.32c.15.15.3.32.45.49s.21.23.31.35l.44.55c.1.13.2.25.29.38s.31.43.47.66l.24.35c.23.35.45.71.67,1.08l.12.22c.18.31.35.63.52,1l.24.47c.13.26.26.52.38.79l.25.55.33.79c.09.19.16.39.24.59s.21.55.32.83.15.41.22.62,0,.14.07.21l-.15.07c-.73.3-1.47.58-2.21.83L69,38c-.73.23-1.46.44-2.2.61l-.16,0c-.77.18-1.55.32-2.34.43l-.51.07c-.77.1-1.55.18-2.34.21Zm-2.78,0h-.11c-.78,0-1.56-.11-2.33-.21L55.6,39c-.78-.11-1.56-.25-2.34-.43l-.16,0c-.73-.17-1.46-.38-2.19-.61-.16-.05-.32-.09-.47-.15-.74-.24-1.48-.52-2.21-.82l-.15-.07a1.87,1.87,0,0,1,.07-.22c.07-.2.14-.4.22-.6l.31-.84.24-.59c.11-.27.23-.53.34-.79s.16-.37.25-.55.25-.53.38-.79.15-.32.23-.47c.17-.33.35-.65.53-1l.12-.22q.33-.55.66-1.08l.25-.35c.15-.23.31-.45.46-.66l.29-.38.44-.55.31-.35c.15-.17.3-.34.46-.49l.3-.32.51-.46.27-.24c.22-.19.45-.36.67-.52l.13-.09a7.8,7.8,0,0,1,.81-.51c.08-.05.16-.08.24-.12s.39-.2.58-.29l.31-.12q.27-.11.54-.18c.1,0,.21-.06.31-.09l.25-.05V39.33Zm15.79-3.64a.69.69,0,0,0,0-.13c-.08-.24-.17-.47-.26-.7s-.25-.68-.38-1l-.3-.71c-.13-.3-.26-.61-.4-.9s-.22-.47-.33-.69-.27-.56-.41-.83l-.36-.66c-.14-.26-.28-.51-.43-.76s-.25-.41-.37-.61L70.6,28c-.13-.19-.26-.38-.4-.56s-.31-.44-.47-.65l-.42-.51c-.16-.2-.32-.4-.49-.58l-.43-.48c-.06-.06-.12-.14-.19-.2a30.35,30.35,0,0,1,12,6.6c-.17.16-.35.33-.53.48l-.47.4c-.59.47-1.18.93-1.81,1.36l-.1.07c-.59.4-1.2.78-1.83,1.15l-.57.33-.59.3Zm-28.8,0-.6-.31-.54-.31c-.64-.38-1.27-.77-1.87-1.18l-.07,0c-.63-.43-1.22-.89-1.81-1.36l-.47-.4c-.19-.15-.36-.32-.54-.48A30.49,30.49,0,0,1,51.7,25l-.18.2c-.15.16-.3.32-.44.49l-.48.55-.43.55c-.16.2-.3.4-.45.61s-.29.4-.43.61l-.42.65c-.14.22-.27.43-.4.66s-.28.47-.41.71-.26.46-.38.7l-.39.79c-.12.24-.24.48-.35.73s-.26.58-.38.87l-.31.73-.39,1c-.08.24-.17.47-.26.71a.69.69,0,0,1-.05.13ZM77.32,53.07a2.45,2.45,0,0,0,0-.27c0-1.12-.08-2.23-.17-3.33,0-.18,0-.37,0-.55-.1-1.15-.22-2.29-.38-3.41h0c-.16-1.12-.36-2.22-.58-3.31,0-.16-.07-.33-.1-.49-.22-1-.47-2.05-.75-3l-.06-.26c.34-.17.66-.36,1-.55l.64-.35c.73-.43,1.45-.88,2.14-1.35l.23-.17c.61-.43,1.2-.88,1.78-1.35l.59-.5c.23-.19.47-.38.69-.58a30.29,30.29,0,0,1,8.24,19.51Zm-47.92,0a30.29,30.29,0,0,1,8.24-19.51c.22.2.45.38.67.57l.62.52c.56.45,1.14.89,1.73,1.31.09.06.18.14.28.2.69.48,1.4.92,2.13,1.35l.63.35c.33.18.66.38,1,.55,0,.08,0,.17-.07.26-.27,1-.52,2-.74,3,0,.16-.07.33-.1.49-.22,1.08-.42,2.18-.58,3.3v0c-.17,1.11-.29,2.25-.39,3.39,0,.19,0,.38,0,.57-.08,1.09-.14,2.2-.17,3.31,0,.1,0,.19,0,.28Zm16,0c0-.67,0-1.33.07-2,0-.4,0-.79.06-1.19.1-1.3.23-2.59.41-3.85l.09-.53c.17-1.09.36-2.16.58-3.21.09-.39.18-.78.28-1.17s.26-1,.4-1.52l0,0c.8.33,1.6.62,2.42.88l.54.17c.82.26,1.65.49,2.48.67l.19,0c.79.17,1.59.31,2.38.42l.55.08c.83.1,1.67.17,2.51.21l.16,0v11Zm15.94,0v-11l.17,0c.84,0,1.68-.11,2.51-.21l.54-.08c.8-.11,1.59-.25,2.38-.42l.2,0c.83-.18,1.65-.41,2.46-.66l.57-.18c.81-.26,1.6-.55,2.39-.88l.06,0c.13.5.27,1,.4,1.51s.19.78.28,1.19c.22,1,.41,2.11.57,3.2,0,.17.07.35.09.53.18,1.26.32,2.55.41,3.85,0,.4,0,.79.06,1.19,0,.66.06,1.33.07,2ZM82.27,75.36c-.22-.2-.45-.38-.68-.57s-.4-.35-.61-.51c-.57-.46-1.15-.91-1.76-1.34-.08,0-.16-.12-.24-.18-.7-.47-1.42-.92-2.15-1.35l-.61-.34c-.33-.19-.66-.38-1-.56a2.46,2.46,0,0,0,.07-.29c.27-1,.52-2,.74-3,0-.18.07-.35.1-.53.22-1.07.42-2.16.58-3.27v0c.16-1.12.28-2.26.38-3.4,0-.19,0-.37,0-.56.09-1.1.14-2.21.17-3.32,0-.1,0-.19,0-.28H90.51a30.24,30.24,0,0,1-8.24,19.51Zm-9.65-6-.06,0c-.79-.33-1.58-.61-2.39-.88l-.57-.18c-.81-.25-1.63-.48-2.46-.66l-.2,0c-.79-.17-1.58-.31-2.38-.42L64,67c-.84-.1-1.67-.17-2.51-.21l-.17,0V55.85H74.5c0,.67,0,1.33-.07,2,0,.4,0,.8-.06,1.19-.09,1.3-.23,2.59-.4,3.85,0,.19-.07.36-.1.55-.16,1.08-.35,2.14-.57,3.19-.09.4-.19.79-.29,1.18s-.26,1-.39,1.51Zm-25.33,0c-.14-.5-.28-1-.4-1.52s-.19-.77-.28-1.17c-.22-1.05-.41-2.11-.58-3.2,0-.18-.06-.35-.09-.54-.18-1.26-.31-2.55-.41-3.85,0-.39,0-.79-.06-1.19,0-.66,0-1.32-.07-2H58.56V66.8l-.16,0c-.84,0-1.68.11-2.51.21l-.55.08c-.8.11-1.59.25-2.38.42l-.19,0c-.83.19-1.66.41-2.47.67l-.56.17c-.81.27-1.61.56-2.41.89Zm-9.65,6A30.26,30.26,0,0,1,29.4,55.85H42.59c0,.1,0,.19,0,.28,0,1.11.09,2.22.17,3.32,0,.19,0,.37,0,.56.1,1.15.22,2.28.39,3.4h0c.16,1.12.36,2.22.58,3.3,0,.16.06.33.1.49.22,1,.47,2.05.74,3.05,0,.08,0,.17.07.25-.34.17-.67.37-1,.55l-.63.35c-.73.43-1.45.88-2.14,1.35l-.27.2c-.59.42-1.17.86-1.73,1.31l-.62.53c-.23.19-.46.36-.67.56Zm23.7,9.53V69.59h.12c.78,0,1.56.11,2.33.21l.52.07c.78.12,1.56.25,2.33.43l.16,0c.74.17,1.47.38,2.2.61.16.05.31.09.46.15.75.24,1.49.52,2.22.83l.15.06c0,.07,0,.14-.07.21s-.15.42-.22.62-.21.56-.32.83-.15.4-.24.6l-.33.78c-.09.19-.17.37-.25.56s-.25.52-.38.78l-.24.48c-.17.32-.34.64-.52,1l-.12.22c-.22.38-.44.73-.67,1.08l-.24.35c-.16.23-.31.45-.47.66l-.28.38-.45.55-.3.35-.46.5c-.1.1-.2.21-.31.31s-.33.31-.5.46l-.28.25c-.22.18-.44.35-.67.51l-.12.1c-.27.18-.54.35-.81.5l-.24.12a4.6,4.6,0,0,1-.59.29l-.3.12-.54.19-.32.08-.25.06Zm-2.78,0-.25-.06L58,84.75l-.55-.19a2.52,2.52,0,0,1-.29-.12,5.48,5.48,0,0,1-.6-.29L56.33,84c-.27-.15-.55-.32-.81-.5l-.12-.1c-.23-.16-.46-.33-.68-.51l-.27-.25-.51-.46-.3-.31-.46-.5-.31-.35-.44-.55-.29-.38-.46-.65-.25-.36q-.33-.52-.66-1.08l-.12-.22c-.18-.31-.36-.63-.53-1-.08-.15-.15-.31-.23-.47s-.26-.52-.38-.78-.17-.37-.25-.56-.23-.52-.34-.79l-.24-.59c-.1-.27-.21-.55-.31-.83s-.15-.41-.22-.62a1.29,1.29,0,0,1-.07-.21l.15-.07c.73-.3,1.47-.58,2.21-.82.15-.06.31-.1.47-.15.73-.23,1.46-.44,2.19-.61l.16,0c.78-.18,1.56-.31,2.34-.43l.52-.07c.77-.1,1.55-.17,2.33-.21h.11v15.3Zm9.69-1,.15-.17.45-.5c.16-.18.32-.36.47-.55l.43-.54c.15-.21.31-.41.46-.63s.27-.38.4-.57.31-.46.45-.7l.38-.61c.15-.25.29-.51.44-.77s.23-.42.34-.64.29-.57.43-.85l.31-.66c.14-.31.28-.63.41-1l.29-.66c.13-.34.26-.7.4-1l.24-.66a.78.78,0,0,0,0-.14c.2.11.41.2.6.31l.55.31c.64.38,1.27.77,1.87,1.19l.07,0c.62.43,1.22.89,1.8,1.37.17.13.33.26.48.4l.52.46-.29.27-.57.47c-.32.27-.65.53-1,.79l-.66.49c-.33.23-.66.46-1,.68l-.7.46c-.4.25-.82.48-1.23.71l-.5.29h0l-.13.07-1,.48c-.31.15-.62.28-.93.42s-.43.2-.66.29l-.22.08h0c-.93.38-1.71.66-2.45.89h0c-.11,0-.23.06-.34.09l-.35.09Zm-16.59,0-.35-.09A3.37,3.37,0,0,1,51,83.7h0c-.41-.13-.83-.27-1.28-.44s-.75-.28-1.18-.45l-.31-.11h0c-.49-.21-1-.44-1.49-.68-.32-.16-.65-.32-1-.5l-.1,0h0l0,0h0c-.59-.32-1.17-.66-1.74-1l-.54-.36-1.13-.77-.61-.45q-.51-.39-1-.81c-.19-.16-.38-.31-.57-.48l-.29-.26.52-.46.48-.41c.59-.47,1.18-.93,1.81-1.36l.08,0q.9-.61,1.86-1.17l.54-.32.6-.31a.78.78,0,0,1,.05.14l.26.68c.13.34.25.69.39,1s.2.47.3.71.25.6.39.89.22.47.34.71.26.54.4.8l.36.68.42.74.39.63c.14.23.29.46.44.68s.27.4.41.59l.46.62.42.54.48.55c.15.17.29.34.44.5a1.29,1.29,0,0,1,.16.17Z" transform="translate(-26.45 -12.11)"/></g><circle class="cls-4" cx="33.38" cy="10.16" r="10.16"/><circle class="cls-4" cx="53.7" cy="18.87" r="7.26"/><circle class="cls-4" cx="13.27" cy="18.87" r="7.26"/><path class="cls-4" d="M59.83,35.33A18.89,18.89,0,0,0,41,54.2a1.45,1.45,0,0,0,1.45,1.45H77.24a1.45,1.45,0,0,0,1.45-1.45A18.89,18.89,0,0,0,59.83,35.33Z" transform="translate(-26.45 -12.11)"/><path class="cls-4" d="M42.22,41.45A13,13,0,0,0,26.45,54.2a1.45,1.45,0,0,0,1.45,1.45H38.32a4.33,4.33,0,0,1-.26-1.45A21.61,21.61,0,0,1,42.22,41.45Z" transform="translate(-26.45 -12.11)"/><path class="cls-4" d="M80.14,41.14a12.85,12.85,0,0,0-2.7.31A21.68,21.68,0,0,1,81.6,54.2a4.34,4.34,0,0,1-.27,1.45H91.75a1.45,1.45,0,0,0,1.46-1.45A13.08,13.08,0,0,0,80.14,41.14Z" transform="translate(-26.45 -12.11)"/></g></g></g></svg>