<svg xmlns="http://www.w3.org/2000/svg" xmlns:xlink="http://www.w3.org/1999/xlink" viewBox="0 0 72.51 72.51"><defs><style>.cls-1{fill:none;}.cls-2{clip-path:url(#clip-path);}.cls-3{fill:#0a2ff1;}.cls-4{fill:#fff;}</style><clipPath id="clip-path" transform="translate(-22.86 -16.69)"><rect class="cls-1" width="117" height="100"/></clipPath></defs><title>Asset 4</title><g id="Layer_2" data-name="Layer 2"><g id="Layer_1-2" data-name="Layer 1"><g class="cls-2"><path class="cls-3" d="M39.29,59.13a20.6,20.6,0,0,0,1.43,3.47l-1.79,2.9a2.13,2.13,0,0,0,.3,2.62L44,72.83a2.12,2.12,0,0,0,2.62.3l2.9-1.79a21.78,21.78,0,0,0,3.46,1.44l.78,3.31a2.14,2.14,0,0,0,2.07,1.64h6.67a2.12,2.12,0,0,0,2.06-1.64l.78-3.31a21.5,21.5,0,0,0,3.47-1.44l2.9,1.79a2.12,2.12,0,0,0,2.62-.3L79,68.12a2.12,2.12,0,0,0,.31-2.62l-1.8-2.9a20.16,20.16,0,0,0,1.44-3.47l3.32-.78a2.13,2.13,0,0,0,1.64-2.07V49.62a2.12,2.12,0,0,0-1.64-2.07l-3.32-.78A19.84,19.84,0,0,0,77.5,43.3l1.8-2.9A2.12,2.12,0,0,0,79,37.78l-4.71-4.71a2.12,2.12,0,0,0-2.62-.31l-2.9,1.8a19.84,19.84,0,0,0-3.47-1.44l-.78-3.32a2.12,2.12,0,0,0-2.06-1.64H55.78a2.14,2.14,0,0,0-2.07,1.64l-.78,3.32a20.06,20.06,0,0,0-3.46,1.44l-2.9-1.8a2.12,2.12,0,0,0-2.62.31l-4.72,4.71a2.13,2.13,0,0,0-.3,2.62l1.79,2.9a20.6,20.6,0,0,0-1.43,3.47L36,47.55a2.12,2.12,0,0,0-1.64,2.07v6.66A2.13,2.13,0,0,0,36,58.35Z" transform="translate(-22.86 -16.69)"/><path class="cls-3" d="M59.11,20.94a32,32,0,0,1,16.52,4.6l-2.87.5a2.13,2.13,0,0,0,.74,4.19l7.92-1.4a2.11,2.11,0,0,0,1.72-2.46l-1.39-7.92a2.12,2.12,0,0,0-2.46-1.72h0a2.12,2.12,0,0,0-1.73,2.46l.51,2.86A36.25,36.25,0,0,0,22.86,53a2.13,2.13,0,0,0,4.25,0A32,32,0,0,1,59.11,20.94Z" transform="translate(-22.86 -16.69)"/><path class="cls-3" d="M93.24,50.82A2.12,2.12,0,0,0,91.12,53,32,32,0,0,1,42.6,80.36l2.87-.51a2.12,2.12,0,1,0-.74-4.18l-7.92,1.39a2.13,2.13,0,0,0-1.73,2.46l1.4,7.93a2.13,2.13,0,0,0,2.46,1.72h0a2.11,2.11,0,0,0,1.72-2.46l-.5-2.87A36.25,36.25,0,0,0,95.37,53a2.13,2.13,0,0,0-2.13-2.13Z" transform="translate(-22.86 -16.69)"/><path class="cls-4" d="M59.11,65a12,12,0,1,0-12-12A12.05,12.05,0,0,0,59.11,65Zm0-19.83A7.79,7.79,0,1,1,51.32,53,7.79,7.79,0,0,1,59.11,45.16Z" transform="translate(-22.86 -16.69)"/></g></g></g></svg>