<svg xmlns="http://www.w3.org/2000/svg" xmlns:xlink="http://www.w3.org/1999/xlink" viewBox="0 0 71.91 73.46"><defs><style>.cls-1{fill:none;}.cls-2{clip-path:url(#clip-path);}.cls-3{fill:#0a2ff1;}</style><clipPath id="clip-path" transform="translate(-24.97 -12.11)"><rect class="cls-1" width="117" height="100"/></clipPath></defs><title>Asset 6</title><g id="Layer_2" data-name="Layer 2"><g id="Layer_1-2" data-name="Layer 1"><g class="cls-2"><path class="cls-3" d="M90.41,51.19C90,45.61,74.24,45.52,69.8,48.3V39.36c0-3.92-8.65-4.84-11.46-4.84s-11.45,1-11.45,4.84v20.7c-4.5-2.79-20-2.67-20.61,2.89,0,0,0,12,0,17.79,0,3.17,5.76,4.84,11.46,4.84,4.15,0,8.34-.89,10.3-2.61,3.95,3.46,16.68,3.46,20.62,0,3.77,3.74,21.37,3.76,21.76-2.23Zm-22.9-5.95a4.65,4.65,0,0,1-2.26,1.53,21.89,21.89,0,0,1-13.81,0,4.58,4.58,0,0,1-2.26-1.53V42.37c5,2.7,13.38,2.7,18.33,0ZM52.28,55.38a1.14,1.14,0,0,0,.54-2.22c-2.72-.67-3.64-1.61-3.64-1.94v-3c5,2.7,13.38,2.7,18.33,0v3c0,.28-.62.94-2.26,1.53a21.45,21.45,0,0,1-6.91,1,1.15,1.15,0,0,0,0,2.29c3.47,0,7-.62,9.17-1.82v3c0,.28-.62.94-2.26,1.53a21.89,21.89,0,0,1-13.81,0c-1.65-.59-2.26-1.25-2.26-1.53v-3a12.72,12.72,0,0,0,3.1,1.13ZM88.12,69c0,.28-.61,1-2.26,1.53a21.72,21.72,0,0,1-13.8,0c-1.65-.58-2.26-1.25-2.26-1.53V66.1c5,2.7,13.37,2.7,18.32,0V69ZM49.18,66.1c5,2.7,13.38,2.7,18.33,0V69c0,.28-.62,1-2.26,1.53a21.75,21.75,0,0,1-13.81,0c-1.65-.58-2.26-1.25-2.26-1.53Zm38.94-3c0,.28-.61.94-2.26,1.53a21.86,21.86,0,0,1-13.8,0c-1.65-.59-2.26-1.25-2.26-1.53V60.21c5,2.7,13.37,2.7,18.32,0v2.87Zm0-5.88c0,.28-.61.94-2.26,1.53a21.86,21.86,0,0,1-13.8,0c-1.65-.59-2.26-1.25-2.26-1.53V54.33c5,2.7,13.37,2.7,18.32,0V57.2Zm-38.94,3c5,2.7,13.38,2.7,18.33,0v2.87c0,.28-.62.94-2.26,1.53a21.89,21.89,0,0,1-13.81,0c-1.65-.59-2.26-1.25-2.26-1.53ZM46.89,69c0,.28-.61,1-2.26,1.53a21.75,21.75,0,0,1-13.81,0c-1.64-.58-2.26-1.25-2.26-1.53V66.1c4.95,2.7,13.38,2.7,18.33,0V69ZM28.56,72c4.95,2.7,13.38,2.7,18.33,0v2.87c0,.28-.61.94-2.26,1.53a21.89,21.89,0,0,1-13.81,0c-1.64-.59-2.26-1.25-2.26-1.53V72Zm20.62,0c5,2.7,13.38,2.7,18.33,0v2.87c0,.28-.62.94-2.26,1.53a21.89,21.89,0,0,1-13.81,0c-1.65-.59-2.26-1.25-2.26-1.53ZM69.8,72c5,2.7,13.37,2.7,18.32,0v2.87c0,.28-.61.94-2.26,1.53a21.86,21.86,0,0,1-13.8,0c-1.65-.59-2.26-1.25-2.26-1.53V72Zm2.26-22.2a24.19,24.19,0,0,1,13.8,0c1.65.59,2.26,1.25,2.26,1.53s-.61.94-2.26,1.53a21,21,0,0,1-6.9,1,21.09,21.09,0,0,1-6.9-1c-1.65-.59-2.26-1.25-2.26-1.53s.61-.94,2.26-1.53Zm-20.62-12a24.05,24.05,0,0,1,13.81,0c1.64.59,2.26,1.25,2.26,1.53s-.62.94-2.26,1.53a21.89,21.89,0,0,1-13.81,0c-1.65-.59-2.26-1.25-2.26-1.53s.61-.94,2.26-1.53ZM30.82,61.55a21.89,21.89,0,0,1,13.81,0c1.65.59,2.26,1.25,2.26,1.53s-.61.94-2.26,1.53a21.89,21.89,0,0,1-13.81,0c-1.64-.59-2.26-1.25-2.26-1.53S29.18,62.14,30.82,61.55ZM44.63,82.27a21.89,21.89,0,0,1-13.81,0c-1.64-.59-2.26-1.25-2.26-1.53V77.86c4.95,2.71,13.38,2.71,18.33,0v2.88c0,.28-.61.94-2.26,1.53Zm20.62,0a21.89,21.89,0,0,1-13.81,0c-1.65-.59-2.26-1.25-2.26-1.53V77.86c5,2.71,13.38,2.71,18.33,0v2.88c0,.28-.62.94-2.26,1.53Zm20.61,0a21.86,21.86,0,0,1-13.8,0c-1.65-.59-2.26-1.25-2.26-1.53V77.86c5,2.71,13.37,2.71,18.32,0v2.88c0,.28-.61.94-2.26,1.53Z" transform="translate(-24.97 -12.11)"/><path class="cls-3" d="M95.09,12.11l-12.26,0a1.79,1.79,0,1,0,0,3.58h8L77.4,28.13l-15-15.46a1.74,1.74,0,0,0-1.28-.47,1.72,1.72,0,0,0-1.27.47L25.49,47.07a1.78,1.78,0,0,0,0,2.51,1.8,1.8,0,0,0,1.28.52A1.78,1.78,0,0,0,28,49.58L61.19,16.43,76.14,32a1.82,1.82,0,0,0,1.28.58A1.93,1.93,0,0,0,78.69,32L93.3,18.24l0,8a1.8,1.8,0,1,0,3.59,0V13.92A1.81,1.81,0,0,0,95.09,12.11Z" transform="translate(-24.97 -12.11)"/></g></g></g></svg>