<svg id="Layer_1" data-name="Layer 1" xmlns="http://www.w3.org/2000/svg" viewBox="0 0 62.83 62.83"><defs><style>.cls-1{fill:#0a2ff1;}</style></defs><title>icon-identidad</title><path class="cls-1" d="M454.73,378.46a31.42,31.42,0,1,0,31.42,31.42A31.45,31.45,0,0,0,454.73,378.46Zm19,52.5,0-1.39c-1.08-6.07-4.43-8.41-9.43-10.7h0L461,417.38l-1-.55v-2.66a16.1,16.1,0,0,0,2.19-4.17c1.09.45,1.92-2.33,2-3.28a1.3,1.3,0,0,0-.76-1.39c.4-2.65.92-5.3.28-7.73l-.09-.19v0l-.09-.18,0,0-.11-.19h0l-.1-.17,0,0-.12-.17,0,0-.13-.18h0l-.12-.16,0,0-.14-.16,0,0-.15-.16,0,0-.14-.15,0,0-.15-.15-.05,0-.16-.15,0,0-.17-.13,0,0-.18-.14,0,0-.19-.13,0,0-.17-.12,0,0-.19-.13-.05,0-.2-.13,0,0-.18-.12-.05,0-.19-.11-.08,0-.19-.1-.07,0-.15-.08-.09,0-.19-.1-.07,0-.2-.1-.1-.05-.13-.06-.13-.05-.15-.07-.11-.05-.19-.07-.12-.05-.11,0-.18-.07-.13,0-.11,0-.17-.06-.15-.06-.1,0-.22-.07-.09,0-.15-.05h0l-.17-.06h0l-.12,0-.12,0-.19-.06-.12,0-.14,0h0l-.18-.05-.14,0-.1,0-.22-.06-.1,0-.15,0h0a18.21,18.21,0,0,0-6.88-.43c-2.39,4-1.86,8.86-1.34,13.52a1.28,1.28,0,0,0-1.07,1.48c0,.95.86,3.73,2,3.28a17.16,17.16,0,0,0,2,4v2.83l-1.25.68-.81.35-.22.1-1.32.58-.74.32h0c-5,2.29-8.34,4.63-9.42,10.7l-.05,1.5a28.41,28.41,0,1,1,37.92-.11Z" transform="translate(-423.32 -378.46)"/></svg>