<svg id="Layer_5" data-name="Layer 5" xmlns="http://www.w3.org/2000/svg" viewBox="0 0 29.25 29.25"><title>icon-diagnostico</title><path d="M1155.76,255v-5.34l-4-.33a11.45,11.45,0,0,0-1-2.4l2.58-3.06-3.77-3.77-3,2.58a11.28,11.28,0,0,0-2.38-1l-.34-4h-5.37l-.34,4a11.28,11.28,0,0,0-2.38,1l-3-2.58-3.77,3.77,2.58,3.06a11.45,11.45,0,0,0-1,2.4l-4,.33V255l4,.34a11.2,11.2,0,0,0,1,2.37l-2.58,3.06,3.77,3.77,3-2.58a10.32,10.32,0,0,0,2.38,1l.34,4h5.33l.34-4a10.58,10.58,0,0,0,2.39-1l3,2.58,3.77-3.77-2.58-3.06a10.71,10.71,0,0,0,1-2.37Zm-14.63,3.53a6.2,6.2,0,0,1-6.07-7.41,6.19,6.19,0,0,1,12.26,1.21,6.2,6.2,0,0,1-6.21,6.2Z" transform="translate(-1126.51 -237.72)"/></svg>