<svg id="Layer_5" data-name="Layer 5" xmlns="http://www.w3.org/2000/svg" viewBox="0 0 36 18"><title>icon-identificadores</title><path d="M720,242.46H694a5,5,0,0,0-5,5v7.95a5,5,0,0,0,5,5h26a5,5,0,0,0,5-5v-7.95A5,5,0,0,0,720,242.46ZM699.22,247a2.41,2.41,0,1,1-2.41,2.41A2.42,2.42,0,0,1,699.22,247Zm4.81,9.9H694.4v-.8c0-1.6,3.21-2.41,4.82-2.41s4.81.81,4.81,2.41Zm13.77,0H707a.9.9,0,1,1,0-1.8h10.8a.9.9,0,0,1,0,1.8Zm0-4.05H707a.9.9,0,1,1,0-1.8h10.8a.9.9,0,0,1,0,1.8Zm0-4.05H707a.9.9,0,0,1,0-1.8h10.8a.9.9,0,0,1,0,1.8Z" transform="translate(-689 -242.46)"/></svg>