<svg xmlns="http://www.w3.org/2000/svg" xmlns:xlink="http://www.w3.org/1999/xlink" viewBox="0 0 71.58 83.4"><defs><style>.cls-1{fill:none;}.cls-2{clip-path:url(#clip-path);}.cls-3{fill:#0a2ff1;}.cls-4{fill:#fff;}</style><clipPath id="clip-path" transform="translate(-24.02 -5.51)"><rect class="cls-1" width="117" height="100"/></clipPath></defs><title>Asset 7</title><g id="Layer_2" data-name="Layer 2"><g id="Layer_1-2" data-name="Layer 1"><g class="cls-2"><path class="cls-3" d="M88.32,58.37V28.49a1.59,1.59,0,0,0-1.68-1.57H80.11a1.64,1.64,0,0,0-1.74,1.57v27a15.78,15.78,0,0,0-3.21.42V37.29a1.65,1.65,0,0,0-1.72-1.6H66.91a1.63,1.63,0,0,0-1.7,1.6V62.48a16.54,16.54,0,0,0-3.07,9.69,16.73,16.73,0,1,0,26.18-13.8ZM81.74,30.29H85V56.58a14.82,14.82,0,0,0-3.21-.88ZM68.58,39.07h3.21V57A17.76,17.76,0,0,0,68.58,59Z" transform="translate(-24.02 -5.51)"/><path class="cls-4" d="M78.89,70.8A2.14,2.14,0,1,1,81,68.66a1.69,1.69,0,0,0,1.69,1.69,1.72,1.72,0,0,0,1.72-1.69,5.51,5.51,0,0,0-3.49-5.13v-1.4a1.69,1.69,0,1,0-3.38,0v1.21a5.52,5.52,0,0,0-4,6.7,5.45,5.45,0,0,0,5.29,4.12,2.12,2.12,0,1,1-2.13,2.11,1.69,1.69,0,0,0-1.69-1.69,1.63,1.63,0,0,0-1.65,1.67v0a5.51,5.51,0,0,0,4.12,5.31v.76a1.69,1.69,0,1,0,3.37,0v-.93a5.49,5.49,0,0,0-2-10.61Z" transform="translate(-24.02 -5.51)"/><path class="cls-3" d="M47,49.19H40.41a1.69,1.69,0,0,0-1.69,1.69V77.36a1.69,1.69,0,0,0,1.69,1.69H47a1.69,1.69,0,0,0,1.68-1.69V50.88A1.69,1.69,0,0,0,47,49.19ZM45.3,75.85H42.09V52.56H45.3Z" transform="translate(-24.02 -5.51)"/><path class="cls-3" d="M60.32,45.31H53.74A1.69,1.69,0,0,0,52.05,47V77.53a1.69,1.69,0,0,0,1.69,1.69h6.58A1.69,1.69,0,0,0,62,77.53V47A1.69,1.69,0,0,0,60.32,45.31ZM58.63,75.85H55.42V48.68h3.21Z" transform="translate(-24.02 -5.51)"/><path class="cls-3" d="M33.66,63.7H27.08a1.69,1.69,0,0,0-1.69,1.69v12a1.69,1.69,0,0,0,1.69,1.69h6.58a1.69,1.69,0,0,0,1.69-1.69v-12A1.69,1.69,0,0,0,33.66,63.7ZM32,75.85h-3.2V67.07H32Z" transform="translate(-24.02 -5.51)"/><path class="cls-3" d="M88.07,5.51H76.53a1.69,1.69,0,0,0,0,3.38h0l7.48,0L65.7,27.12l-6.4-6.34a1.59,1.59,0,0,0-1.19-.44,1.62,1.62,0,0,0-1.2.44L24.51,53.17a1.68,1.68,0,0,0,2.4,2.36L58.12,24.32l6.4,6.44a1.64,1.64,0,0,0,1.2.54,1.76,1.76,0,0,0,1.19-.54L86.38,11.28v7.5a1.69,1.69,0,1,0,3.37,0l0-11.57A1.7,1.7,0,0,0,88.07,5.51Z" transform="translate(-24.02 -5.51)"/></g></g></g></svg>