<svg xmlns="http://www.w3.org/2000/svg" xmlns:xlink="http://www.w3.org/1999/xlink" viewBox="0 0 79.7 79.7"><defs><style>.cls-1{fill:none;}.cls-2{clip-path:url(#clip-path);}.cls-3{fill:#0a2ff1;stroke:#03f;stroke-miterlimit:10;stroke-width:0.62px;}</style><clipPath id="clip-path" transform="translate(-20.84 -9.01)"><rect class="cls-1" width="117" height="100"/></clipPath></defs><title>Asset 3</title><g id="Layer_2" data-name="Layer 2"><g id="Layer_1-2" data-name="Layer 1"><g class="cls-2"><path class="cls-3" d="M100.1,57.54h0l-13-28.33,3.15-1.56L89.1,25.28,86,26.81l-.41-.91a1.33,1.33,0,0,0-1.75-.65,1.29,1.29,0,0,0-.65.65l-.37.81a16.89,16.89,0,0,0-7.13-1.58H64.65V22.5h2.63V19.86H65l1-3.79a5.44,5.44,0,0,0-10.55-2.64,5.61,5.61,0,0,0,0,2.64l.95,3.79H54.1V22.5h2.64v2.63H45.67a16.89,16.89,0,0,0-7.13,1.58l-.37-.81a1.33,1.33,0,0,0-2.4,0l-.41.91-3.07-1.54-1.18,2.37,3.15,1.57-13,28.32a1.33,1.33,0,0,0-.12.55,9.25,9.25,0,0,0,9.23,9.23H43.56a9.25,9.25,0,0,0,9.23-9.23,1.27,1.27,0,0,0-.14-.54l-13-28.44a14.36,14.36,0,0,1,6-1.33H56.74V76l-4.5,4.5H47.51a6.6,6.6,0,0,0-6.59,6.59,1.32,1.32,0,0,0,1.32,1.32H79.15a1.32,1.32,0,0,0,1.31-1.32,6.59,6.59,0,0,0-6.59-6.59H69.15L64.65,76V27.77H75.72a14.3,14.3,0,0,1,6,1.33l-13,28.43a1.33,1.33,0,0,0-.12.55,9.24,9.24,0,0,0,9.23,9.23H91a9.23,9.23,0,0,0,9.22-9.23A1.13,1.13,0,0,0,100.1,57.54Zm-50.69-.78H24.52L36.63,30.35a1.31,1.31,0,0,0,.68,0ZM58.49,13a2.88,2.88,0,0,1,4.41,0,2.79,2.79,0,0,1,.51,2.4L62.3,19.86H59.09L58,15.43A2.79,2.79,0,0,1,58.49,13Zm.89,12.1V22.5H62v2.63ZM62,27.77V75.22H59.38V27.77ZM73.87,83.12a4,4,0,0,1,3.73,2.64H43.78a4,4,0,0,1,3.73-2.64Zm-8.45-2.63H56l2.63-2.64h4.18ZM84.08,30.35a.89.89,0,0,0,.66,0L96.86,56.76H72Z" transform="translate(-20.84 -9.01)"/></g></g></g></svg>