<svg xmlns="http://www.w3.org/2000/svg" viewBox="0 0 46.96 36"><defs><style>.cls-1{fill:#04146c;}</style></defs><title>Asset 2</title><g id="Layer_2" data-name="Layer 2"><g id="Layer_5" data-name="Layer 5"><path class="cls-1" d="M42.79,36H4.17A3.92,3.92,0,0,1,0,32.4V8.13a3.92,3.92,0,0,1,4.17-3.6h7.18L15.75.68A2.84,2.84,0,0,1,17.63,0H29.29a2.85,2.85,0,0,1,1.94.74l4.06,3.79h7.5A3.92,3.92,0,0,1,47,8.13V32.4A3.92,3.92,0,0,1,42.79,36ZM4.17,6.53C3,6.53,2,7.27,2,8.13V32.4C2,33.27,3,34,4.17,34H42.79C44,34,45,33.27,45,32.4V8.13c0-.86-1-1.6-2.17-1.6h-7.9a1,1,0,0,1-.68-.27L29.87,2.2a.85.85,0,0,0-.58-.2H17.63a.84.84,0,0,0-.56.19l-4.69,4.1a1,1,0,0,1-.66.24Z"/><path class="cls-1" d="M23.48,29.76A9.76,9.76,0,1,1,33.24,20,9.77,9.77,0,0,1,23.48,29.76Zm0-17.52A7.76,7.76,0,1,0,31.24,20,7.77,7.77,0,0,0,23.48,12.24Z"/></g></g></svg>