<svg xmlns="http://www.w3.org/2000/svg" viewBox="0 0 40.6 40.6"><defs><style>.cls-1{fill:none;stroke:#000;stroke-miterlimit:10;stroke-width:1.1px;}.cls-2{fill:#0a2ff1;}</style></defs><title>Asset 3</title><g id="Layer_2" data-name="Layer 2"><g id="Layer_5" data-name="Layer 5"><circle class="cls-1" cx="20.3" cy="20.3" r="19.75"/><path class="cls-2" d="M15.1,27A6,6,0,0,1,12,26.18,5.08,5.08,0,0,1,10,24a7.42,7.42,0,0,1-.71-3.35A7.15,7.15,0,0,1,10,17.29a5,5,0,0,1,2-2.1,6.24,6.24,0,0,1,3.06-.72,6.38,6.38,0,0,1,2.24.4A4.87,4.87,0,0,1,19.15,16l-.69,1.39a4.85,4.85,0,0,0-1.57-1,4.45,4.45,0,0,0-1.67-.34,3.66,3.66,0,0,0-2.91,1.18,5.09,5.09,0,0,0-1,3.43,5.27,5.27,0,0,0,1,3.46,3.62,3.62,0,0,0,2.91,1.22A4.7,4.7,0,0,0,16.86,25a4.49,4.49,0,0,0,1.6-1l.69,1.37a4.75,4.75,0,0,1-1.84,1.18A6.43,6.43,0,0,1,15.1,27Z"/><path class="cls-2" d="M26.74,27a6,6,0,0,1-3.09-.77,5.08,5.08,0,0,1-2-2.19,7.42,7.42,0,0,1-.71-3.35,7.15,7.15,0,0,1,.72-3.35,5,5,0,0,1,2-2.1,6.24,6.24,0,0,1,3.06-.72,6.38,6.38,0,0,1,2.24.4A4.87,4.87,0,0,1,30.79,16l-.69,1.39a4.85,4.85,0,0,0-1.57-1,4.45,4.45,0,0,0-1.67-.34A3.66,3.66,0,0,0,24,17.23a5.09,5.09,0,0,0-1,3.43,5.27,5.27,0,0,0,1,3.46,3.62,3.62,0,0,0,2.91,1.22A4.7,4.7,0,0,0,28.5,25a4.49,4.49,0,0,0,1.6-1l.69,1.37A4.75,4.75,0,0,1,29,26.54,6.43,6.43,0,0,1,26.74,27Z"/></g></g></svg>