<svg xmlns="http://www.w3.org/2000/svg" viewBox="0 0 40.6 40.6"><defs><style>.cls-1{fill:none;stroke:#000;stroke-miterlimit:10;stroke-width:1.1px;}.cls-2{fill:#0a2ff1;}</style></defs><title>Asset 4</title><g id="Layer_2" data-name="Layer 2"><g id="Layer_5" data-name="Layer 5"><circle class="cls-1" cx="20.3" cy="20.3" r="19.75"/><path class="cls-2" d="M19.87,34V30.4l.5.47a14.68,14.68,0,0,1-2.6-.28,10,10,0,0,1-2.36-.77,8.47,8.47,0,0,1-2-1.3l.84-1.85a9.61,9.61,0,0,0,2.82,1.63,10.44,10.44,0,0,0,3.48.53,5.72,5.72,0,0,0,3.58-.94,3,3,0,0,0,1.18-2.42,2.37,2.37,0,0,0-.86-1.92,6.74,6.74,0,0,0-2.81-1.14l-2.8-.58A9.67,9.67,0,0,1,16,20.76a4.14,4.14,0,0,1-1.65-1.7,5.22,5.22,0,0,1-.53-2.44,5.37,5.37,0,0,1,.79-2.9,5.74,5.74,0,0,1,2.23-2,8,8,0,0,1,3.33-.82l-.33.39V7.77h1.9v3.5l-.36-.39a9.62,9.62,0,0,1,3,.64A6.55,6.55,0,0,1,27,13.29l-.78,1.79a6.92,6.92,0,0,0-2.49-1.67,8.71,8.71,0,0,0-3.05-.51,5.28,5.28,0,0,0-3.39,1,3.24,3.24,0,0,0-1.26,2.66,2.77,2.77,0,0,0,.8,2.08,5.09,5.09,0,0,0,2.59,1.14l2.8.62a8.54,8.54,0,0,1,4,1.75,4.12,4.12,0,0,1,1.31,3.21,4.81,4.81,0,0,1-.81,2.78A5.58,5.58,0,0,1,24.57,30a8.93,8.93,0,0,1-3.25.82l.45-.47V34Z"/></g></g></svg>