<svg xmlns="http://www.w3.org/2000/svg" viewBox="0 0 49.98 22.63"><defs><style>.cls-1{fill:#04146c;}.cls-2{fill:none;stroke:#0a2ff1;stroke-miterlimit:10;}.cls-3{fill:#0a2ff1;}</style></defs><title>Asset 1</title><g id="Layer_2" data-name="Layer 2"><g id="Layer_5" data-name="Layer 5"><path class="cls-1" d="M48,22.62C47.9,21.84,45.33,3.5,25,3.5S2.08,21.84,2,22.62l-2-.24C0,22.17,2.87,1.5,25,1.5S50,22.17,50,22.38Z"/><rect class="cls-1" x="22.99" width="4" height="4"/><line class="cls-2" x1="2.06" y1="1.5" x2="47.92" y2="1.5"/><path class="cls-3" d="M2.12,2.63A1.13,1.13,0,1,1,3.25,1.5,1.14,1.14,0,0,1,2.12,2.63Z"/><path class="cls-3" d="M47.86,2.63A1.13,1.13,0,1,0,46.74,1.5,1.13,1.13,0,0,0,47.86,2.63Z"/></g></g></svg>